<svg width="982" height="982" viewBox="0 0 982 982" fill="none" xmlns="http://www.w3.org/2000/svg">
<path opacity="0.05" d="M490.761 980.522C761.248 980.522 980.521 761.249 980.521 490.761C980.521 220.274 761.248 1 490.761 1C220.273 1 1 220.274 1 490.761C1 761.249 220.273 980.522 490.761 980.522Z" fill="#FAFAFA"/>
<path opacity="0.05" d="M490.76 980.522C620.653 980.522 745.226 928.923 837.074 837.075C928.921 745.227 980.521 620.654 980.521 490.761C980.521 360.868 928.921 236.296 837.074 144.448C745.226 52.5997 620.653 1 490.76 1" stroke="url(#paint0_linear_97_561)"/>
<path opacity="0.05" d="M490.76 980.522C597.5 980.522 699.868 928.923 775.344 837.075C850.82 745.227 893.222 620.654 893.222 490.761C893.222 360.868 850.82 236.296 775.344 144.448C699.868 52.5997 597.5 1 490.76 1" stroke="url(#paint1_linear_97_561)"/>
<path opacity="0.05" d="M490.76 980.522C567.188 980.522 640.485 928.923 694.527 837.075C748.569 745.227 778.929 620.654 778.929 490.761C778.929 360.868 748.569 236.296 694.527 144.448C640.485 52.5997 567.188 1 490.76 1" stroke="url(#paint2_linear_97_561)"/>
<path opacity="0.05" d="M490.76 980.522C530.734 980.522 569.07 928.923 597.336 837.075C625.601 745.227 641.481 620.654 641.481 490.761C641.481 360.868 625.601 236.296 597.336 144.448C569.07 52.5997 530.734 1 490.76 1" stroke="url(#paint3_linear_97_561)"/>
<path opacity="0.05" d="M490.76 980.522V1" stroke="url(#paint4_linear_97_561)"/>
<path opacity="0.05" d="M490.761 1C450.787 1 412.451 52.5997 384.185 144.448C355.92 236.296 340.041 360.868 340.041 490.761C340.041 620.654 355.92 745.227 384.185 837.075C412.451 928.923 450.787 980.522 490.761 980.522" stroke="url(#paint5_linear_97_561)"/>
<path opacity="0.05" d="M490.761 1C414.333 1 341.036 52.5997 286.994 144.448C232.952 236.296 202.592 360.868 202.592 490.761C202.592 620.654 232.952 745.227 286.994 837.075C341.036 928.923 414.333 980.522 490.761 980.522" stroke="url(#paint6_linear_97_561)"/>
<path opacity="0.05" d="M490.761 1C384.021 1 281.653 52.5997 206.177 144.448C130.701 236.296 88.2986 360.868 88.2986 490.761C88.2986 620.654 130.701 745.227 206.177 837.075C281.653 928.923 384.021 980.522 490.761 980.522" stroke="url(#paint7_linear_97_561)"/>
<path opacity="0.05" d="M490.761 1C360.868 1 236.295 52.5997 144.448 144.448C52.5996 236.296 1 360.868 1 490.761C1 620.654 52.5996 745.227 144.448 837.075C236.295 928.923 360.868 980.522 490.761 980.522" stroke="url(#paint8_linear_97_561)"/>
<path opacity="0.05" d="M196.904 98.9523H784.617" stroke="url(#paint9_linear_97_561)"/>
<path opacity="0.05" d="M98.9521 196.905H882.569" stroke="url(#paint10_linear_97_561)"/>
<path opacity="0.05" d="M41.8877 294.857H939.634" stroke="url(#paint11_linear_97_561)"/>
<path opacity="0.05" d="M10.8955 392.809H970.627" stroke="url(#paint12_linear_97_561)"/>
<path opacity="0.05" d="M1 490.761H980.521" stroke="url(#paint13_linear_97_561)"/>
<path opacity="0.05" d="M10.8955 588.713H970.627" stroke="url(#paint14_linear_97_561)"/>
<path opacity="0.05" d="M41.8877 686.666H939.634" stroke="url(#paint15_linear_97_561)"/>
<path opacity="0.05" d="M98.9521 784.618H882.569" stroke="url(#paint16_linear_97_561)"/>
<path opacity="0.05" d="M196.904 882.57H784.617" stroke="url(#paint17_linear_97_561)"/>
<defs>
<linearGradient id="paint0_linear_97_561" x1="0.999908" y1="1" x2="0.999908" y2="490.761" gradientUnits="userSpaceOnUse">
<stop/>
<stop offset="1"/>
</linearGradient>
<linearGradient id="paint1_linear_97_561" x1="0.999918" y1="1" x2="0.999918" y2="490.761" gradientUnits="userSpaceOnUse">
<stop/>
<stop offset="1"/>
</linearGradient>
<linearGradient id="paint2_linear_97_561" x1="0.999956" y1="1" x2="0.999956" y2="490.761" gradientUnits="userSpaceOnUse">
<stop/>
<stop offset="1"/>
</linearGradient>
<linearGradient id="paint3_linear_97_561" x1="1" y1="1" x2="1" y2="490.761" gradientUnits="userSpaceOnUse">
<stop/>
<stop offset="1"/>
</linearGradient>
<linearGradient id="paint4_linear_97_561" x1="nan" y1="nan" x2="nan" y2="nan" gradientUnits="userSpaceOnUse">
<stop/>
<stop offset="1"/>
</linearGradient>
<linearGradient id="paint5_linear_97_561" x1="1.00015" y1="1" x2="1.00015" y2="490.761" gradientUnits="userSpaceOnUse">
<stop/>
<stop offset="1"/>
</linearGradient>
<linearGradient id="paint6_linear_97_561" x1="0.999969" y1="1" x2="0.999969" y2="490.761" gradientUnits="userSpaceOnUse">
<stop/>
<stop offset="1"/>
</linearGradient>
<linearGradient id="paint7_linear_97_561" x1="0.999979" y1="1" x2="0.999979" y2="490.761" gradientUnits="userSpaceOnUse">
<stop/>
<stop offset="1"/>
</linearGradient>
<linearGradient id="paint8_linear_97_561" x1="1" y1="1" x2="1" y2="490.761" gradientUnits="userSpaceOnUse">
<stop/>
<stop offset="1"/>
</linearGradient>
<linearGradient id="paint9_linear_97_561" x1="nan" y1="nan" x2="nan" y2="nan" gradientUnits="userSpaceOnUse">
<stop/>
<stop offset="1"/>
</linearGradient>
<linearGradient id="paint10_linear_97_561" x1="nan" y1="nan" x2="nan" y2="nan" gradientUnits="userSpaceOnUse">
<stop/>
<stop offset="1"/>
</linearGradient>
<linearGradient id="paint11_linear_97_561" x1="nan" y1="nan" x2="nan" y2="nan" gradientUnits="userSpaceOnUse">
<stop/>
<stop offset="1"/>
</linearGradient>
<linearGradient id="paint12_linear_97_561" x1="nan" y1="nan" x2="nan" y2="nan" gradientUnits="userSpaceOnUse">
<stop/>
<stop offset="1"/>
</linearGradient>
<linearGradient id="paint13_linear_97_561" x1="nan" y1="nan" x2="nan" y2="nan" gradientUnits="userSpaceOnUse">
<stop/>
<stop offset="1"/>
</linearGradient>
<linearGradient id="paint14_linear_97_561" x1="nan" y1="nan" x2="nan" y2="nan" gradientUnits="userSpaceOnUse">
<stop/>
<stop offset="1"/>
</linearGradient>
<linearGradient id="paint15_linear_97_561" x1="nan" y1="nan" x2="nan" y2="nan" gradientUnits="userSpaceOnUse">
<stop/>
<stop offset="1"/>
</linearGradient>
<linearGradient id="paint16_linear_97_561" x1="nan" y1="nan" x2="nan" y2="nan" gradientUnits="userSpaceOnUse">
<stop/>
<stop offset="1"/>
</linearGradient>
<linearGradient id="paint17_linear_97_561" x1="nan" y1="nan" x2="nan" y2="nan" gradientUnits="userSpaceOnUse">
<stop/>
<stop offset="1"/>
</linearGradient>
</defs>
</svg>
