<svg width="155" height="23" viewBox="0 0 155 23" fill="none" xmlns="http://www.w3.org/2000/svg">
<path d="M10.265 0.0099988C11.895 0.0099988 13.345 0.339999 14.615 0.999999C15.895 1.65 16.925 2.54 17.705 3.67C18.495 4.8 18.96 6.075 19.1 7.495H14.51C14.37 6.745 14.115 6.08 13.745 5.5C13.375 4.91 12.89 4.45 12.29 4.12C11.69 3.78 10.97 3.61 10.13 3.61C9.12 3.61 8.25 3.855 7.52 4.345C6.79 4.835 6.23 5.625 5.84 6.715C5.45 7.805 5.255 9.245 5.255 11.035C5.255 13.735 5.685 15.69 6.545 16.9C7.415 18.1 8.61 18.7 10.13 18.7C10.97 18.7 11.69 18.51 12.29 18.13C12.89 17.74 13.375 17.23 13.745 16.6C14.115 15.96 14.37 15.26 14.51 14.5H19.1C18.97 15.53 18.72 16.515 18.35 17.455C17.98 18.385 17.455 19.215 16.775 19.945C16.095 20.675 15.22 21.25 14.15 21.67C13.08 22.09 11.785 22.3 10.265 22.3C8.245 22.3 6.5 21.83 5.03 20.89C3.56 19.95 2.425 18.63 1.625 16.93C0.835 15.23 0.44 13.245 0.44 10.975C0.44 8.695 0.835 6.74 1.625 5.11C2.415 3.47 3.545 2.21 5.015 1.33C6.485 0.449999 8.235 0.0099988 10.265 0.0099988ZM40.363 0.309999L32.878 22H27.913L20.488 0.309999H24.673L30.403 16.915L36.178 0.309999H40.363ZM43.3538 22V0.309999H58.2488L58.2338 4H47.7488V9.265H56.8538V12.88H47.7188V18.265L58.3988 18.28V22H43.3538Z" fill="#F2F2F2"/>
<path d="M68.7542 0.309999H83.5142L83.4992 3.97H73.1642V9.415H82.1192V13H73.1642V22H68.7542V0.309999ZM87.1527 0.309999H91.5177V22H87.1527V0.309999ZM114.636 22H109.176L104.286 14.17L99.4862 22H94.7762L101.991 10.99L95.0012 0.309999H100.416L104.751 7.33L109.041 0.309999H113.691L107.001 10.42L114.636 22ZM117.885 22V0.309999H132.78L132.765 4H122.28V9.265H131.385V12.88H122.25V18.265L132.93 18.28V22H117.885ZM145.278 22.3C144.208 22.3 143.158 22.165 142.128 21.895C141.098 21.625 140.158 21.22 139.308 20.68C138.458 20.14 137.753 19.465 137.193 18.655C136.643 17.845 136.313 16.895 136.203 15.805H140.688C140.838 16.465 141.123 17.02 141.543 17.47C141.963 17.92 142.493 18.265 143.133 18.505C143.773 18.745 144.483 18.865 145.263 18.865C146.063 18.865 146.793 18.765 147.453 18.565C148.113 18.365 148.643 18.065 149.043 17.665C149.443 17.255 149.643 16.745 149.643 16.135C149.643 15.585 149.478 15.135 149.148 14.785C148.828 14.435 148.393 14.15 147.843 13.93C147.293 13.71 146.668 13.53 145.968 13.39L142.218 12.625C140.578 12.315 139.278 11.665 138.318 10.675C137.358 9.675 136.863 8.345 136.833 6.685C136.823 5.325 137.183 4.15 137.913 3.16C138.653 2.16 139.653 1.39 140.913 0.849999C142.183 0.309999 143.603 0.0399984 145.173 0.0399984C147.043 0.0399984 148.613 0.334998 149.883 0.924999C151.163 1.505 152.133 2.295 152.793 3.295C153.463 4.285 153.808 5.39 153.828 6.61H149.433C149.353 5.85 149.123 5.245 148.743 4.795C148.363 4.345 147.873 4.02 147.273 3.82C146.683 3.62 146.008 3.52 145.248 3.52C144.668 3.52 144.138 3.585 143.658 3.715C143.188 3.845 142.788 4.03 142.458 4.27C142.128 4.5 141.873 4.775 141.693 5.095C141.513 5.415 141.423 5.775 141.423 6.175C141.423 6.805 141.633 7.315 142.053 7.705C142.473 8.095 143.258 8.415 144.408 8.665L148.128 9.43C149.458 9.69 150.513 10.075 151.293 10.585C152.083 11.095 152.673 11.67 153.063 12.31C153.463 12.95 153.723 13.605 153.843 14.275C153.973 14.935 154.038 15.545 154.038 16.105C154.038 17.275 153.668 18.33 152.928 19.27C152.198 20.2 151.178 20.94 149.868 21.49C148.558 22.03 147.028 22.3 145.278 22.3Z" fill="#3B82F6"/>
</svg>
